<?xml version="1.0" encoding="UTF-8"?>
<svg id="Layer_2" data-name="Layer 2" xmlns="http://www.w3.org/2000/svg" viewBox="0 0 168.53 243.4">
  <defs>
    <style>
      .cls-1 {
        letter-spacing: .4em;
      }

      .cls-2, .cls-3, .cls-4, .cls-5, .cls-6 {
        fill: #606060;
      }

      .cls-2, .cls-3, .cls-5, .cls-6 {
        font-family: BebasNeue-Regular, 'Bebas Neue';
      }

      .cls-2, .cls-7 {
        letter-spacing: .41em;
      }

      .cls-2, .cls-6 {
        font-size: 15.82px;
      }

      .cls-3 {
        font-size: 12.28px;
      }

      .cls-5 {
        font-size: 12.29px;
      }
    </style>
  </defs>
  <g id="Layer_1-2" data-name="Layer 1">
    <g>
      <g>
        <path class="cls-4" d="m66.44,70.84c-2.32-1.38-3.56-3.39-3.55-6.13,0-.92.03-1.85,0-2.77-.14-4.01-2.5-4.64-5.61-3.88-1.83.45-3.19,1.87-4.41,3.25-.74.84-.41,2.07-.3,3.08.22,2.06,0,4.11-.12,6.15-.21,3.46-.06,6.92-.18,10.38-.05,1.31.82.52,1.2.37,2.68-1.01,5.35-2.02,8.11-2.76.27-.07.52-.21.84.05-.21,1.26-1.54,1.3-2.29,1.92-2.23,1.84-4.83,3.07-7.71,3.59-.54.1-.4.43-.4.7,0,2.77-.24,5.53-.25,8.29-.02,4.16-.31,8.3-.38,12.46-.05,3.37-.18,3.4,3.19,3.35,10.16-.15,20.33-.19,30.49-.39,6.28-.12,12.57.08,18.84-.24,4.48-.22,8.96-.32,13.42-.13,4.16.18,8.3.17,12.45.16,4.37-.01,8.74-.18,13.08-.76.62-.08,1.27-.01,1.93.11-1.57.84-3.32,1.09-5,1.52-.13.03-.28,0-.41.03-1.07.22-2.53.11-3.11.77-.68.77.6,1.89.75,2.94.22,1.55.49,3.09.73,4.63.56,3.46.31,6.87-.51,10.28-.36,1.5.2,3.01.3,4.52.13,2.03-.08,4.03-.42,5.97-.42,2.34-.06,4.61.17,6.85.23,2.14,0,4.32.56,6.45.29,1.13.76,2.25.72,3.7-2.25-1.18-4.18-2.4-4.76-4.87-1.26-5.33-1.09-10.68-.11-16.03.53-2.87.65-5.74-.03-8.61-.37-1.58.05-3.12.29-4.65.42-2.64.13-5.24-.2-7.83-.08-.68-.2-1.37-.16-2.04.05-.82-.26-1.1-1.03-.98-8.01,1.19-16.08.82-24.14.8-.36,0-.72.04-1.18.08,1.15,2.94,1.61,5.93,1.67,9,.02,1.17-.43,1.88-1.52,2.12-3.22.7-4.73,3.13-6.01,5.82-.26.56-.49,1.23-.05,1.69.44.46,1.08.05,1.54-.19,2.04-1.05,4.13-1.95,6.12-3.14,3.63-2.18,7.4-3.02,11.45-.54,3.92,2.39,6.94,5.46,7.94,9.96.59,2.66.5,5.47-.58,8.16-1.13,2.81-3.6,4.06-5.92,5.54-2.45,1.56-5.32,2.05-7.94,3.16-1.7.71-3.12,1.72-4.12,3.3-.18.28-.33.51-.37.86-.21,1.6-.32,1.62-1.67.74-.95-.62-1.62-1.52-2.33-2.35-.91-1.06-.27-3.13,1.02-4.47,1.65-1.72,3.73-2.65,5.9-3.41,3.14-1.11,6.15-2.49,8.9-4.37,2.38-1.63,3.45-3.99,3.42-6.86-.01-.97,0-1.94,0-2.91,0-2.04-.99-3.17-2.87-3.83-2.47-.86-4.78-.66-7.08.47-1.18.58-2.38.97-3.5,1.86-1.5,1.2-3.54,1.76-5.4,2.48-1.23.47-2.49.15-3.58-.53-2.76-1.74-4.43-4.26-5.01-7.47-.22-1.25.21-2.41.94-3.37,1.51-1.97,3.32-3.56,5.79-4.3,2.68-.8,2.67-.84,2.44-3.52,0-.05,0-.09,0-.14q-.29-4.01-4.29-4.03c-3.3-.01-6.61,0-10.2,0,2.38,2.1,2.58,4.65,2.94,7.36.48,3.65-.1,7.25.19,10.86.08,1,.22,2.01.25,3.01.08,2.67-.15,5.32-.51,7.97-.21,1.51.16,3.02.23,4.53.12,2.85.04,5.71-.24,8.56-.14,1.43.35,2.57,1.93,2.86.85.16.84.73.81,1.34-.02.53.19,1.17-.5,1.44-.64.25-1.02-.24-1.43-.6-3.25-2.8-4.99-6.41-4.66-10.63.33-4.19-.16-8.39.49-12.55.29-1.89.44-3.79.38-5.76-.41,1.15-1.18,1.97-1.98,2.81-2.29,2.42-4.92,2.18-7.36.15-1.72-1.43-3.06-3.19-4.05-5.21-.78-1.58-.87-3.25-.45-4.87.83-3.2.57-6.25-.69-9.27-.11-.25-.2-.51-.34-.88.91.02,1.45.34,1.91,1.08,1.06,1.73,2.03,3.46,2.71,5.4,1.02,2.9.75,5.71.09,8.57-.45,1.93-.3,2.29,1.58,2.01,2.66-.41,5.06-1.3,6.61-3.89,1.57-2.62,2.21-5.24,1.62-8.27-.33-1.69.08-3.48-.26-5.23-.15-.76-.41-.85-1.05-.87-5.06-.11-10.11-.4-15.18-.46-6.5-.08-13-.33-19.5-.41-1.15-.02-2.31.06-3.46.04-.59,0-.84.19-.83.8.02,1.52,0,3.04,0,4.59.66-.09,1.03-.31,1.46-.86.87-1.1,1.96-2.02,3.22-2.74,3.19-1.81,6.4-1.72,9.73-.41,3.24,1.28,5.22,3.67,6.59,6.77.96,2.19,1.91,4.33,2.24,6.75.18,1.34,0,2.56-.28,3.81-1.1,4.86-3.95,8.67-7.75,11.64-2.8,2.18-5.62,4.33-7.75,7.13-2.47,3.25-3.47,6.97-2.28,11.07.17.59.5,1.31-.18,1.77-.68.46-1.22-.14-1.75-.46-2.3-1.36-3.06-3.61-3.22-6.08-.19-3.06.41-5.82,2.16-8.55,1.82-2.83,4.01-5.17,6.58-7.18,2.47-1.93,4.79-4,7.04-6.18,2.71-2.63,3.94-5.96,4.69-9.49.48-2.28-.81-3.95-2.67-5-3.21-1.82-6.71-2.51-10-.51-3.28,2-6.18,4.5-6.48,8.88-.19,2.7-1.21,5.24-2.03,7.81-.08.26-.18.54-.16.8.21,3.42-.04,6.84-.33,10.22-.32,3.72.09,7.45-.46,11.16-.19,1.3,0,2.65-.03,3.98-.09,4.16-.2,8.31-.3,12.47,0,.2.09.45-.22.59-.35-.4-.18-.87-.19-1.29-.06-5.22-.06-10.45-.16-15.67-.1-5.31-.28-10.61-.44-15.92,0-.33.18-.79-.33-.94-.4-.12-.52.28-.76.47-1.82,1.38-3.93,2-6.15,2.51-2.28.52-4.12.06-5.85-1.46-.78-.69-1.64-1.33-2.49-1.93-2.04-1.43-2.86-3.68-4.13-5.63-.84-1.29-.84-2.82-.48-4.3.39-1.57.8-3.13.75-4.77-.04-1.32,1.3-1.55,1.97-2.29.89-.97,2.03-1.69,3.24-2.3,2.47-1.25,4.96-.78,6.86,1.26.89.95,1.67,1.96,2.36,3.06.64,1.02.95,2.09.8,3.28-.07.59.26,1.46-.79,1.42-.85-.03-1.3-.65-1.38-1.45-.08-.78-.07-1.57-.06-2.36.01-.99-.46-1.41-1.43-1.46-1.49-.07-2.81.3-3.92,1.33-1.1,1.03-2.41,1.83-3.36,3.01-.62.77-1.01,1.62-.98,2.64.02.73-.07,1.45-.23,2.18-.39,1.8.06,3.45,1.38,4.79.35.36.74.79,1.27.74,3.34-.32,6.79-.44,9.32-3.07,1.73-1.79,2.39-4.22,3.14-6.5,1.76-5.35.63-10.89.83-16.34.08-2.12-.02-2.26-2.13-2.11-2.71.2-5.07-.63-7.03-2.33-1.34-1.16-2.23-2.8-3.06-4.38-1.13-2.13-2.43-4.11-4.25-5.72-1.11-.98-2.49-1.49-3.9-1.63-3.54-.35-6.98.3-10.36,1.33-2.87.87-5.97,1.11-8.7.32-3.26-.94-5.97-3.17-7.4-6.57-1.16-2.74-1.26-5.31-.36-8.26,2.03-6.7,8.38-8.73,13.47-7.94,4.3.66,8.24,2.51,12.41,3.61,3.21.85,6.39,1.23,9.56-.26,1.38-.65,2.54-1.51,3.36-2.79,1.72-2.68,3.52-5.3,5.71-7.62.13-.13.23-.34.38-.39,1.89-.66,1.49-2.25,1.51-3.66.05-2.58-.09-5.17.58-7.71.12-.46.28-.87.52-1.27.88-1.42,2.46-1.42,3.28.05.82,1.45.96,3.06.9,4.7-.01.38-.22.89.26,1.11.47.22.76-.23,1.05-.5,1.65-1.6,3.45-2.66,5.9-2.54,1.84.09,3.33,1.24,3.67,3.06.31,1.69.15,3.4.29,5.09.15,1.73.79,3.27,2.44,4.18,1.67,1.9,4.63,2.15,7.26.84,2.44-1.22,4.27-3.23,4.86-5.94.41-1.89.95-3.74.35-5.87-.72-2.56-1.11-5.21-2.03-7.76-.94-2.61-1.78-5.38-1.21-8.17.99-4.83,3.65-7.72,9.2-6.46,2.48.56,4.66,1.95,7.11,2.57,2.77.69,5.37.78,8.13-.59,1.94-.96,3.71-1.93,5-3.64,1.45-1.92,2.36-4.1,2.56-6.52.02,3.05-1.16,5.65-3.16,7.87-3.52,3.9-8.96,5.06-14.06,3.1-2.16-.83-4.34-1.72-6.61-2.1-3.14-.53-5.42.39-6.71,3.61-.93,2.32-.92,4.74-.31,7.27.74,3.08,2.34,5.87,2.78,9.02.62,4.38.48,8.56-2.86,12.03-2.74,2.85-5.69,3.58-9.23,2.14-.17-.07-.36-.08-.54-.12Zm-28.35,14.89c2.68-.59,5.34-1.22,8.02-1.75.75-.15,1.03-.43,1.02-1.16-.04-4.9-.07-9.79-.1-14.69,0-.32.04-.72-.31-.85-.36-.14-.56.23-.79.45-1.86,1.76-3.38,3.77-4.7,5.96-1.3,2.16-2.78,4.11-5.25,5.11-2.84,1.16-5.82.98-8.68.62-2.27-.29-4.43-1.41-6.64-2.15-3.84-1.29-7.74-2.58-11.82-1.52-4.16,1.08-6.75,4.06-7.75,8.09-1.02,4.11,1.19,8.81,4.6,11.04,2.7,1.76,5.63,2.17,8.74,1.61,2.75-.5,5.47-1.15,8.23-1.58,2.77-.43,5.51-.3,8.07,1.1,2.69,1.47,4.24,3.99,5.43,6.54,2.17,4.61,4.88,6.58,10.05,6.58,1.18,0,1.47-.37,1.45-1.49-.15-7.02-.28-14.03-.32-21.05,0-1.33-.53-1.51-1.58-1.21-2.09.58-4.26.55-6.39.75-.42.04-.95.2-1.27-.39Zm10.64-21.71c1.17-.86,2.42-1.41,2.2-3.01-.12-.91-.34-1.8-.52-2.7-.07-.32-.2-.66-.58-.68-.42-.02-.47.38-.59.66-.72,1.79-.63,3.65-.51,5.73Zm2.2.97c0-.37.02-.74,0-1.11-.03-.49-.33-.56-.63-.27-.84.81-1.95,1.46-1.63,2.95.17.76.19,1.55.31,2.32.06.35.14.81.56.85.48.04.73-.38.83-.79.29-1.3.56-2.61.56-3.95Z"/>
        <text class="cls-6" transform="translate(59.5 177.95)"><tspan class="cls-7" x="0" y="0">PR</tspan><tspan class="cls-1" x="25.33" y="0">O</tspan><tspan class="cls-7" x="38.02" y="0">JECT</tspan></text>
        <text class="cls-2" transform="translate(56.98 101.94)"><tspan x="0" y="0">HE</tspan></text>
      </g>
      <text class="cls-3" transform="translate(21.09 60.48) rotate(-68.75)"><tspan x="0" y="0">S</tspan></text>
      <text class="cls-3" transform="translate(23.47 54.59) rotate(-63.6)"><tspan x="0" y="0">T</tspan></text>
      <text class="cls-3" transform="translate(26.37 48.98) rotate(-59.33)"><tspan x="0" y="0">I</tspan></text>
      <text class="cls-3" transform="translate(28.53 45.41) rotate(-55.09)"><tspan x="0" y="0">T</tspan></text>
      <text class="cls-3" transform="translate(32.14 40.35) rotate(-49.98)"><tspan x="0" y="0">C</tspan></text>
      <text class="cls-3" transform="translate(36.35 35.45) rotate(-44.59)"><tspan x="0" y="0">H</tspan></text>
      <text class="cls-3" transform="translate(41.4 30.65) rotate(-40.11)"><tspan x="0" y="0">I</tspan></text>
      <text class="cls-3" transform="translate(44.61 27.96) rotate(-35.58)"><tspan x="0" y="0">N</tspan></text>
      <text class="cls-3" transform="translate(50.39 23.95) rotate(-30.08)"><tspan x="0" y="0">G</tspan></text>
      <text class="cls-3" transform="translate(56.15 20.74) rotate(-25.88)"><tspan x="0" y="0"> </tspan></text>
      <text class="cls-3" transform="translate(59.62 19.12) rotate(-22.61)"><tspan x="0" y="0">I</tspan></text>
      <text class="cls-3" transform="translate(63.42 17.52) rotate(-17.51)"><tspan x="0" y="0">M</tspan></text>
      <text class="cls-3" transform="translate(71.47 15.13) rotate(-11.42)"><tspan x="0" y="0">P</tspan></text>
      <text class="cls-3" transform="translate(77.45 13.98) rotate(-6.4)"><tspan x="0" y="0">A</tspan></text>
      <text class="cls-3" transform="translate(84.08 13.32) rotate(-1.11)"><tspan x="0" y="0">C</tspan></text>
      <text class="cls-3" transform="translate(90.57 13.28) rotate(3.97)"><tspan x="0" y="0">T</tspan></text>
      <text class="cls-3" transform="translate(96.88 13.83) rotate(8.04)"><tspan x="0" y="0"> </tspan></text>
      <text class="cls-3" transform="translate(100.6 14.37) rotate(12.1)"><tspan x="0" y="0">T</tspan></text>
      <text class="cls-3" transform="translate(106.69 15.75) rotate(17.48)"><tspan x="0" y="0">H</tspan></text>
      <text class="cls-3" transform="translate(113.29 17.92) rotate(23.06)"><tspan x="0" y="0">R</tspan></text>
      <text class="cls-3" transform="translate(119.46 20.64) rotate(28.54)"><tspan x="0" y="0">O</tspan></text>
      <text class="cls-3" transform="translate(125.28 23.9) rotate(33.96)"><tspan x="0" y="0">U</tspan></text>
      <text class="cls-3" transform="translate(130.81 27.73) rotate(39.33)"><tspan x="0" y="0">G</tspan></text>
      <text class="cls-3" transform="translate(135.84 31.95) rotate(44.77)"><tspan x="0" y="0">H</tspan></text>
      <text class="cls-3" transform="translate(140.72 36.97) rotate(49.12)"><tspan x="0" y="0"> </tspan></text>
      <text class="cls-3" transform="translate(143.17 39.85) rotate(53.07)"><tspan x="0" y="0">L</tspan></text>
      <text class="cls-3" transform="translate(146.74 44.75) rotate(57.21)"><tspan x="0" y="0">I</tspan></text>
      <text class="cls-3" transform="translate(148.97 48.26) rotate(61.52)"><tspan x="0" y="0">V</tspan></text>
      <text class="cls-3" transform="translate(151.99 54) rotate(66.69)"><tspan x="0" y="0">E</tspan></text>
      <text class="cls-3" transform="translate(154.39 59.77) rotate(71.82)"><tspan x="0" y="0">S</tspan></text>
      <text class="cls-5" transform="translate(18 181.38) rotate(79.15)"><tspan x="0" y="0">S</tspan></text>
      <text class="cls-5" transform="translate(19.45 188.3) rotate(73.43)"><tspan x="0" y="0">T</tspan></text>
      <text class="cls-5" transform="translate(21.55 194.83) rotate(68.7)"><tspan x="0" y="0">I</tspan></text>
      <text class="cls-5" transform="translate(23.32 199.24) rotate(63.97)"><tspan x="0" y="0">T</tspan></text>
      <text class="cls-5" transform="translate(26.45 205.37) rotate(58.28)"><tspan x="0" y="0">C</tspan></text>
      <text class="cls-5" transform="translate(30.32 211.41) rotate(52.31)"><tspan x="0" y="0">H</tspan></text>
      <text class="cls-5" transform="translate(35.1 217.33) rotate(47.31)"><tspan x="0" y="0">I</tspan></text>
      <text class="cls-5" transform="translate(38.36 220.8) rotate(42.31)"><tspan x="0" y="0">N</tspan></text>
      <text class="cls-5" transform="translate(44.2 225.92) rotate(36.23)"><tspan x="0" y="0">G</tspan></text>
      <text class="cls-5" transform="translate(50.07 230.03) rotate(31.58)"><tspan x="0" y="0"> </tspan></text>
      <text class="cls-5" transform="translate(53.71 232.19) rotate(27.99)"><tspan x="0" y="0">I</tspan></text>
      <text class="cls-5" transform="translate(58.01 234.46) rotate(22.31)"><tspan x="0" y="0">M</tspan></text>
      <text class="cls-5" transform="translate(66.57 237.75) rotate(15.59)"><tspan x="0" y="0">P</tspan></text>
      <text class="cls-5" transform="translate(73.12 239.48) rotate(9.99)"><tspan x="0" y="0">A</tspan></text>
      <text class="cls-5" transform="translate(80.4 240.62) rotate(4.12)"><tspan x="0" y="0">C</tspan></text>
      <text class="cls-5" transform="translate(87.55 241.01) rotate(-1.5)"><tspan x="0" y="0">T</tspan></text>
      <text class="cls-5" transform="translate(94.39 240.69) rotate(-5.98)"><tspan x="0" y="0"> </tspan></text>
      <text class="cls-5" transform="translate(98.69 240.2) rotate(-10.51)"><tspan x="0" y="0">T</tspan></text>
      <text class="cls-5" transform="translate(105.53 238.81) rotate(-16.48)"><tspan x="0" y="0">H</tspan></text>
      <text class="cls-5" transform="translate(112.86 236.5) rotate(-22.66)"><tspan x="0" y="0">R</tspan></text>
      <text class="cls-5" transform="translate(119.66 233.52) rotate(-28.68)"><tspan x="0" y="0">O</tspan></text>
      <text class="cls-5" transform="translate(126.13 229.82) rotate(-34.73)"><tspan x="0" y="0">U</tspan></text>
      <text class="cls-5" transform="translate(132.14 225.5) rotate(-40.64)"><tspan x="0" y="0">G</tspan></text>
      <text class="cls-5" transform="translate(137.6 220.65) rotate(-46.66)"><tspan x="0" y="0">H</tspan></text>
      <text class="cls-5" transform="translate(142.69 215.02) rotate(-51.49)"><tspan x="0" y="0"> </tspan></text>
      <text class="cls-5" transform="translate(145.32 211.63) rotate(-55.87)"><tspan x="0" y="0">L</tspan></text>
      <text class="cls-5" transform="translate(148.91 206.11) rotate(-60.45)"><tspan x="0" y="0">I</tspan></text>
      <text class="cls-5" transform="translate(151.22 201.92) rotate(-65.28)"><tspan x="0" y="0">V</tspan></text>
      <text class="cls-5" transform="translate(154.1 195.34) rotate(-71.04)"><tspan x="0" y="0">E</tspan></text>
      <text class="cls-5" transform="translate(156.24 188.76) rotate(-76.73)"><tspan x="0" y="0">S</tspan></text>
    </g>
  </g>
</svg>